HIERARCHY
ROOT Hips
{
	OFFSET -339.306915 540.749023 89.171944
	CHANNELS 6 Xposition Yposition Zposition Zrotation Yrotation Xrotation
	JOINT Spine
	{
		OFFSET 0.000000 2.080078 8.814247
		CHANNELS 6 Xposition Yposition Zposition Zrotation Yrotation Xrotation
		JOINT Spine1
		{
			OFFSET 0.000000 0.000000 8.844139
			CHANNELS 6 Xposition Yposition Zposition Zrotation Yrotation Xrotation
			JOINT Spine2
			{
				OFFSET 0.000000 0.000000 11.682266
				CHANNELS 6 Xposition Yposition Zposition Zrotation Yrotation Xrotation
				JOINT Spine3
				{
					OFFSET 0.000000 0.000000 11.746696
					CHANNELS 6 Xposition Yposition Zposition Zrotation Yrotation Xrotation
					JOINT Neck
					{
						OFFSET 0.000000 0.000000 17.658264
						CHANNELS 6 Xposition Yposition Zposition Zrotation Yrotation Xrotation
						JOINT Neck1
						{
							OFFSET 0.000000 0.000000 5.101517
							CHANNELS 6 Xposition Yposition Zposition Zrotation Yrotation Xrotation
							JOINT Head
							{
								OFFSET 0.000000 0.000000 5.101517
								CHANNELS 6 Xposition Yposition Zposition Zrotation Yrotation Xrotation
								JOINT HeadEnd
								{
									OFFSET 0.000000 0.000000 11.655090
									CHANNELS 6 Xposition Yposition Zposition Zrotation Yrotation Xrotation
									End Site
									{
										OFFSET 0.000000 0.000000 0.100006
									}
								}
							}
						}
					}
					JOINT RightShoulder
					{
						OFFSET -2.625397 0.000000 11.175217
						CHANNELS 6 Xposition Yposition Zposition Zrotation Yrotation Xrotation
						JOINT RightArm
						{
							OFFSET 0.000000 0.000000 10.434708
							CHANNELS 6 Xposition Yposition Zposition Zrotation Yrotation Xrotation
							JOINT RightForeArm
							{
								OFFSET 0.000000 0.000000 29.628418
								CHANNELS 6 Xposition Yposition Zposition Zrotation Yrotation Xrotation
								JOINT RightHand
								{
									OFFSET 0.000000 0.000000 22.857605
									CHANNELS 6 Xposition Yposition Zposition Zrotation Yrotation Xrotation
									JOINT RightHandThumb1
									{
										OFFSET -2.867310 -2.944275 3.959564
										CHANNELS 6 Xposition Yposition Zposition Zrotation Yrotation Xrotation
										JOINT RightHandThumb2
										{
											OFFSET 0.000000 0.000000 3.350403
											CHANNELS 6 Xposition Yposition Zposition Zrotation Yrotation Xrotation
											JOINT RightHandThumb3
											{
												OFFSET 0.000000 0.000000 3.756516
												CHANNELS 6 Xposition Yposition Zposition Zrotation Yrotation Xrotation
												JOINT RightHandThumb4
												{
													OFFSET 0.000000 0.000000 3.147339
													CHANNELS 6 Xposition Yposition Zposition Zrotation Yrotation Xrotation
													End Site
													{
														OFFSET 0.000000 0.000000 0.100006
													}
												}
											}
										}
									}
									JOINT RightHandIndex1
									{
										OFFSET -0.086761 -2.345276 10.030899
										CHANNELS 6 Xposition Yposition Zposition Zrotation Yrotation Xrotation
										JOINT RightHandIndex2
										{
											OFFSET 0.000000 0.000000 4.061096
											CHANNELS 6 Xposition Yposition Zposition Zrotation Yrotation Xrotation
											JOINT RightHandIndex3
											{
												OFFSET 0.000000 0.000000 3.248871
												CHANNELS 6 Xposition Yposition Zposition Zrotation Yrotation Xrotation
												JOINT RightHandIndex4
												{
													OFFSET 0.000000 0.000000 2.639709
													CHANNELS 6 Xposition Yposition Zposition Zrotation Yrotation Xrotation
													End Site
													{
														OFFSET 0.000000 0.000000 0.100006
													}
												}
											}
										}
									}
									JOINT RightHandMiddle1
									{
										OFFSET 0.104095 -0.006775 9.502945
										CHANNELS 6 Xposition Yposition Zposition Zrotation Yrotation Xrotation
										JOINT RightHandMiddle2
										{
											OFFSET 0.000000 0.000000 4.568726
											CHANNELS 6 Xposition Yposition Zposition Zrotation Yrotation Xrotation
											JOINT RightHandMiddle3
											{
												OFFSET 0.000000 0.000000 3.654984
												CHANNELS 6 Xposition Yposition Zposition Zrotation Yrotation Xrotation
												JOINT RightHandMiddle4
												{
													OFFSET 0.000000 0.000000 2.741241
													CHANNELS 6 Xposition Yposition Zposition Zrotation Yrotation Xrotation
													End Site
													{
														OFFSET 0.000000 0.000000 0.100006
													}
												}
											}
										}
									}
									JOINT RightHandRing1
									{
										OFFSET 0.086761 2.267456 8.921707
										CHANNELS 6 Xposition Yposition Zposition Zrotation Yrotation Xrotation
										JOINT RightHandRing2
										{
											OFFSET 0.000000 0.000000 4.061096
											CHANNELS 6 Xposition Yposition Zposition Zrotation Yrotation Xrotation
											JOINT RightHandRing3
											{
												OFFSET 0.000000 0.000000 3.654984
												CHANNELS 6 Xposition Yposition Zposition Zrotation Yrotation Xrotation
												JOINT RightHandRing4
												{
													OFFSET 0.000000 0.000000 2.741241
													CHANNELS 6 Xposition Yposition Zposition Zrotation Yrotation Xrotation
													End Site
													{
														OFFSET 0.000000 0.000000 0.100006
													}
												}
											}
										}
									}
									JOINT RightHandPinky1
									{
										OFFSET -0.173492 4.467224 7.976990
										CHANNELS 6 Xposition Yposition Zposition Zrotation Yrotation Xrotation
										JOINT RightHandPinky2
										{
											OFFSET 0.000000 0.000000 3.350403
											CHANNELS 6 Xposition Yposition Zposition Zrotation Yrotation Xrotation
											JOINT RightHandPinky3
											{
												OFFSET 0.000000 0.000000 2.842758
												CHANNELS 6 Xposition Yposition Zposition Zrotation Yrotation Xrotation
												JOINT RightHandPinky4
												{
													OFFSET 0.000000 0.000000 2.639709
													CHANNELS 6 Xposition Yposition Zposition Zrotation Yrotation Xrotation
													End Site
													{
														OFFSET 0.000000 0.000000 0.100006
													}
												}
											}
										}
									}
									JOINT RightForeArmEnd
									{
										OFFSET 0.000000 0.000000 0.000000
										CHANNELS 6 Xposition Yposition Zposition Zrotation Yrotation Xrotation
										End Site
										{
											OFFSET 0.000000 0.000000 0.100006
										}
									}
								}
								JOINT RightArmEnd
								{
									OFFSET 0.000000 0.000000 0.000000
									CHANNELS 6 Xposition Yposition Zposition Zrotation Yrotation Xrotation
									End Site
									{
										OFFSET 0.000000 0.000000 0.100006
									}
								}
							}
						}
					}
					JOINT LeftShoulder
					{
						OFFSET 2.625397 0.000000 11.175217
						CHANNELS 6 Xposition Yposition Zposition Zrotation Yrotation Xrotation
						JOINT LeftArm
						{
							OFFSET 0.000000 0.000000 10.813629
							CHANNELS 6 Xposition Yposition Zposition Zrotation Yrotation Xrotation
							JOINT LeftForeArm
							{
								OFFSET 0.000000 0.000000 28.724777
								CHANNELS 6 Xposition Yposition Zposition Zrotation Yrotation Xrotation
								JOINT LeftHand
								{
									OFFSET 0.644379 0.328857 25.716171
									CHANNELS 6 Xposition Yposition Zposition Zrotation Yrotation Xrotation
									JOINT LeftHandThumb1
									{
										OFFSET 2.867310 -2.944275 3.959564
										CHANNELS 6 Xposition Yposition Zposition Zrotation Yrotation Xrotation
										JOINT LeftHandThumb2
										{
											OFFSET 0.000000 0.000000 3.350403
											CHANNELS 6 Xposition Yposition Zposition Zrotation Yrotation Xrotation
											JOINT LeftHandThumb3
											{
												OFFSET 0.000000 0.000000 3.756516
												CHANNELS 6 Xposition Yposition Zposition Zrotation Yrotation Xrotation
												JOINT LeftHandThumb4
												{
													OFFSET 0.000000 0.000000 3.100006
													CHANNELS 6 Xposition Yposition Zposition Zrotation Yrotation Xrotation
													End Site
													{
														OFFSET 0.000000 0.000000 0.100006
													}
												}
											}
										}
									}
									JOINT LeftHandIndex1
									{
										OFFSET 0.086761 -2.345276 10.030899
										CHANNELS 6 Xposition Yposition Zposition Zrotation Yrotation Xrotation
										JOINT LeftHandIndex2
										{
											OFFSET 0.000000 0.000000 4.061096
											CHANNELS 6 Xposition Yposition Zposition Zrotation Yrotation Xrotation
											JOINT LeftHandIndex3
											{
												OFFSET 0.000000 0.000000 3.248871
												CHANNELS 6 Xposition Yposition Zposition Zrotation Yrotation Xrotation
												JOINT LeftHandIndex4
												{
													OFFSET 0.000000 0.000000 2.639709
													CHANNELS 6 Xposition Yposition Zposition Zrotation Yrotation Xrotation
													End Site
													{
														OFFSET 0.000000 0.000000 0.100006
													}
												}
											}
										}
									}
									JOINT LeftHandMiddle1
									{
										OFFSET -0.104095 -0.006775 9.502945
										CHANNELS 6 Xposition Yposition Zposition Zrotation Yrotation Xrotation
										JOINT LeftHandMiddle2
										{
											OFFSET 0.000000 0.000000 4.568726
											CHANNELS 6 Xposition Yposition Zposition Zrotation Yrotation Xrotation
											JOINT LeftHandMiddle3
											{
												OFFSET 0.000000 0.000000 3.654984
												CHANNELS 6 Xposition Yposition Zposition Zrotation Yrotation Xrotation
												JOINT LeftHandMiddle4
												{
													OFFSET 0.000000 0.000000 2.741241
													CHANNELS 6 Xposition Yposition Zposition Zrotation Yrotation Xrotation
													End Site
													{
														OFFSET 0.000000 0.000000 0.100006
													}
												}
											}
										}
									}
									JOINT LeftHandRing1
									{
										OFFSET -0.086761 2.267456 8.921707
										CHANNELS 6 Xposition Yposition Zposition Zrotation Yrotation Xrotation
										JOINT LeftHandRing2
										{
											OFFSET 0.000000 0.000000 4.061096
											CHANNELS 6 Xposition Yposition Zposition Zrotation Yrotation Xrotation
											JOINT LeftHandRing3
											{
												OFFSET 0.000000 0.000000 3.654984
												CHANNELS 6 Xposition Yposition Zposition Zrotation Yrotation Xrotation
												JOINT LeftHandRing4
												{
													OFFSET 0.000000 0.000000 2.741241
													CHANNELS 6 Xposition Yposition Zposition Zrotation Yrotation Xrotation
													End Site
													{
														OFFSET 0.000000 0.000000 0.100006
													}
												}
											}
										}
									}
									JOINT LeftHandPinky1
									{
										OFFSET 0.173492 4.467224 7.976990
										CHANNELS 6 Xposition Yposition Zposition Zrotation Yrotation Xrotation
										JOINT LeftHandPinky2
										{
											OFFSET 0.000000 0.000000 3.350403
											CHANNELS 6 Xposition Yposition Zposition Zrotation Yrotation Xrotation
											JOINT LeftHandPinky3
											{
												OFFSET 0.000000 0.000000 2.842758
												CHANNELS 6 Xposition Yposition Zposition Zrotation Yrotation Xrotation
												JOINT LeftHandPinky4
												{
													OFFSET 0.000000 0.000000 2.639709
													CHANNELS 6 Xposition Yposition Zposition Zrotation Yrotation Xrotation
													End Site
													{
														OFFSET 0.000000 0.000000 0.100006
													}
												}
											}
										}
									}
									JOINT LeftForeArmEnd
									{
										OFFSET 0.000000 0.000000 0.000000
										CHANNELS 6 Xposition Yposition Zposition Zrotation Yrotation Xrotation
										End Site
										{
											OFFSET 0.000000 0.000000 0.100006
										}
									}
								}
								JOINT LeftArmEnd
								{
									OFFSET 0.000000 0.000000 0.000000
									CHANNELS 6 Xposition Yposition Zposition Zrotation Yrotation Xrotation
									End Site
									{
										OFFSET 0.000000 0.000000 0.100006
									}
								}
							}
						}
					}
				}
			}
		}
	}
	JOINT RightUpLeg
	{
		OFFSET -11.289948 0.000000 0.000000
		CHANNELS 6 Xposition Yposition Zposition Zrotation Yrotation Xrotation
		JOINT RightLeg
		{
			OFFSET 0.000000 0.000000 -38.200329
			CHANNELS 6 Xposition Yposition Zposition Zrotation Yrotation Xrotation
			JOINT RightFoot
			{
				OFFSET 0.000000 0.000000 -39.900856
				CHANNELS 6 Xposition Yposition Zposition Zrotation Yrotation Xrotation
				JOINT RightToeBase
				{
					OFFSET 0.000000 -15.261658 0.000001
					CHANNELS 6 Xposition Yposition Zposition Zrotation Yrotation Xrotation
					JOINT RightToeBaseEnd
					{
						OFFSET 0.000000 -7.370728 0.000001
						CHANNELS 6 Xposition Yposition Zposition Zrotation Yrotation Xrotation
						End Site
						{
							OFFSET 0.000000 0.000000 0.100000
						}
					}
				}
				JOINT RightLegEnd
				{
					OFFSET 0.000000 0.000000 0.000000
					CHANNELS 6 Xposition Yposition Zposition Zrotation Yrotation Xrotation
					End Site
					{
						OFFSET 0.000000 0.000000 0.100000
					}
				}
			}
			JOINT RightUpLegEnd
			{
				OFFSET 0.000000 0.000000 0.000000
				CHANNELS 6 Xposition Yposition Zposition Zrotation Yrotation Xrotation
				End Site
				{
					OFFSET 0.000000 0.000000 0.099998
				}
			}
		}
	}
	JOINT LeftUpLeg
	{
		OFFSET 11.315674 0.000000 0.000000
		CHANNELS 6 Xposition Yposition Zposition Zrotation Yrotation Xrotation
		JOINT LeftLeg
		{
			OFFSET 0.000000 0.000000 -38.200329
			CHANNELS 6 Xposition Yposition Zposition Zrotation Yrotation Xrotation
			JOINT LeftFoot
			{
				OFFSET 0.000000 0.000000 -39.900856
				CHANNELS 6 Xposition Yposition Zposition Zrotation Yrotation Xrotation
				JOINT LeftToeBase
				{
					OFFSET 0.000000 -15.261658 0.000001
					CHANNELS 6 Xposition Yposition Zposition Zrotation Yrotation Xrotation
					JOINT LeftToeBaseEnd
					{
						OFFSET 0.000000 -7.539978 0.000001
						CHANNELS 6 Xposition Yposition Zposition Zrotation Yrotation Xrotation
						End Site
						{
							OFFSET 0.000000 0.000000 0.100000
						}
					}
				}
				JOINT LeftLegEnd
				{
					OFFSET 0.000000 0.000000 0.000000
					CHANNELS 6 Xposition Yposition Zposition Zrotation Yrotation Xrotation
					End Site
					{
						OFFSET 0.000000 0.000000 0.100000
					}
				}
			}
			JOINT LeftUpLegEnd
			{
				OFFSET 0.000000 0.000000 0.000000
				CHANNELS 6 Xposition Yposition Zposition Zrotation Yrotation Xrotation
				End Site
				{
					OFFSET 0.000000 0.000000 0.099998
				}
			}
		}
	}
}
MOTION
Frames: 2
Frame Time: 0.016667
11.977966 -61.547791 86.125366 -13.127659 -2.214593 -16.192731 0.000007 2.080072 8.814238 0.331601 2.225984 5.409476 -0.000010 -0.000004 8.844143 0.425668 -0.184264 1.110812 0.000007 0.000023 11.682266 -0.006727 -0.684159 5.413065 0.000011 0.000013 11.746697 -0.264254 -0.260009 4.758992 0.000006 0.000011 17.658272 -2.194866 9.050853 15.288506 0.000003 -0.000006 5.101501 -6.095242 2.134775 1.743731 -0.000006 -0.000021 5.101552 -0.619622 0.286679 -13.440519 0.000002 0.000007 11.655088 -0.000001 0.000001 -0.000001 -2.625389 -0.000019 11.175230 11.300820 -83.761636 -0.101486 -0.000061 0.000012 10.434708 -0.533318 -52.306572 31.165873 0.000000 0.000046 29.628445 22.385219 0.870060 126.725923 -0.000015 -0.000036 22.857590 36.910738 -16.392377 -4.518619 -2.867321 -2.944275 3.959579 31.800340 -16.060418 53.378215 0.000038 0.000011 3.350407 -10.021684 7.236971 -18.397996 -0.000004 -0.000004 3.756523 -6.707791 5.373689 -12.625518 -0.000018 -0.000003 3.147320 0.000000 0.000002 0.000002 -0.086765 -2.345280 10.030933 6.221676 -9.679461 33.725005 -0.000008 0.000018 4.061091 -0.493339 -3.448189 -0.484737 -0.000000 -0.000009 3.248879 -0.000686 -3.448154 -0.484275 0.000001 -0.000000 2.639710 -0.000001 -0.000001 -0.000004 0.104084 -0.006774 9.502968 180.407071 -162.097260 -160.134509 -0.000039 0.000022 4.568748 -0.439724 -11.847651 -0.628881 0.000001 -0.000021 3.654998 0.061001 -11.847671 -0.629040 0.000008 0.000007 2.741259 -0.000000 -0.000002 -0.000002 0.086773 2.267447 8.921707 166.034864 -141.608003 -164.888362 0.000001 0.000007 4.061109 0.533229 -28.056474 1.868061 -0.000041 -0.000002 3.655006 -0.466778 -28.056445 1.868048 -0.000010 -0.000008 2.741230 0.000001 0.000002 -0.000001 -0.173492 4.467194 7.976990 142.450507 -125.865292 -163.847782 -0.000023 0.000010 3.350418 -1.223457 -39.051545 9.073173 -0.000006 -0.000032 2.842796 -3.223471 -39.051542 9.073186 -0.000001 0.000007 2.639697 0.000000 -0.000000 -0.000001 0.000001 0.000005 0.000007 -0.000002 -0.000003 -0.000002 0.000004 -0.000003 0.000007 0.000000 -0.000002 -0.000003 2.625377 -0.000009 11.175253 -14.154941 88.125068 -0.538652 0.000008 0.000002 10.813629 17.364277 43.418495 19.356946 -0.000031 0.000053 28.724806 -19.939621 -0.748830 109.799553 0.644414 0.328796 25.716148 -90.288380 57.463543 -19.773930 2.867340 -2.944260 3.959549 -32.088915 14.722017 55.537235 -0.000011 0.000000 3.350418 7.118213 -5.629086 -13.352945 -0.000008 0.000017 3.756504 4.801577 -4.087759 -9.191234 0.000043 -0.000002 3.100013 0.000000 -0.000000 -0.000001 0.086777 -2.345264 10.030876 -173.370391 191.611163 -163.596117 0.000011 0.000048 4.061100 -0.559013 0.132858 -0.001359 -0.000014 0.000004 3.248898 -0.056581 -0.074311 -0.000964 -0.000002 -0.000001 2.639728 0.000000 0.000000 0.000000 -0.104068 -0.006781 9.502954 -177.151529 184.038218 -169.757221 0.000013 0.000021 4.568731 -0.565266 -0.000264 -0.053325 0.000004 0.000004 3.654999 -0.056071 0.000008 -0.046400 -0.000001 0.000005 2.741259 0.000000 0.000001 -0.000002 -0.086712 2.267436 8.921713 -182.833782 170.145968 -178.674156 0.000009 0.000016 4.061116 0.983683 6.896445 -0.422767 0.000031 0.000008 3.655022 -0.014404 6.896746 -0.422532 0.000023 0.000002 2.741244 -0.000000 -0.000001 -0.000002 0.173496 4.467239 7.976982 170.503870 160.658057 165.553690 -0.000032 -0.000010 3.350409 1.584862 15.401417 -3.069446 -0.000002 -0.000015 2.842781 -0.399057 15.401435 -3.065184 0.000002 0.000004 2.639722 -0.000000 -0.000001 0.000000 0.000005 -0.000004 0.000023 -0.000000 -0.000001 0.000001 -0.000007 -0.000025 0.000033 0.000003 -0.000001 -0.000001 -11.289957 0.000007 0.000010 11.754660 -2.689003 3.987668 -0.000002 0.000000 -38.200317 0.017640 -0.011061 32.083871 0.000014 0.000064 -39.900856 -5.018079 4.917988 4.962074 -0.000000 -15.261656 0.000001 0.128358 0.520100 -18.538119 -0.000004 -7.370730 0.000001 0.000001 0.000000 0.000000 -0.000000 0.000062 -0.000006 -0.000000 0.000000 0.000002 -0.000000 -0.000001 0.000004 -0.000000 -0.000000 0.000001 11.315647 0.000101 0.000023 13.933976 3.212585 11.107541 -0.000019 0.000054 -38.200317 0.608383 -0.239357 21.475774 0.000027 -0.000070 -39.900867 7.456196 -7.108426 5.708080 0.000011 -15.261622 0.000009 -0.565178 -0.661931 -16.448953 0.000003 -7.539918 0.000001 0.000000 0.000000 -0.000000 0.000001 -0.000000 0.000002 0.000000 0.000000 -0.000000 0.000032 -0.000001 -0.000018 -0.000000 -0.000000 -0.000000 
11.924988 -61.669861 86.054596 -14.900905 -2.238909 -16.567522 -0.000003 2.080076 8.814255 0.295955 1.901972 5.558556 0.000002 0.000005 8.844156 0.381529 -0.499825 1.121180 -0.000000 -0.000022 11.682275 0.557579 -0.731399 5.737060 -0.000002 0.000028 11.746716 0.005412 -0.110759 4.822534 0.000015 -0.000009 17.658302 -1.375086 9.590007 14.683807 -0.000015 0.000026 5.101544 -5.849892 1.943111 1.528028 -0.000007 0.000027 5.101522 -0.541767 0.177874 -13.281191 -0.000006 -0.000044 11.655081 -0.000003 0.000001 -0.000000 -2.625412 -0.000005 11.175220 12.561199 -84.655769 -0.107702 -0.000031 -0.000010 10.434723 -3.130029 -54.165774 33.528996 0.000011 0.000000 29.628429 22.826405 0.958441 127.475058 0.000038 0.000002 22.857586 34.756288 -15.213705 -3.376251 -2.867325 -2.944290 3.959572 31.800326 -16.060394 53.378212 0.000004 -0.000011 3.350414 -10.021668 7.236978 -18.397989 0.000021 -0.000004 3.756504 -6.707788 5.373688 -12.625526 0.000009 0.000022 3.147337 -0.000003 -0.000000 0.000000 -0.086765 -2.345261 10.030895 6.268666 -9.550989 33.311365 0.000014 0.000003 4.061080 -0.492742 -3.393883 -0.477132 -0.000035 0.000019 3.248873 0.000101 -3.393906 -0.476723 0.000029 -0.000016 2.639747 0.000002 -0.000001 0.000001 0.104084 -0.006780 9.502945 180.412234 -162.126862 -160.288721 -0.000010 -0.000019 4.568734 -0.435027 -11.832756 -0.629401 0.000016 0.000028 3.655008 0.064979 -11.832918 -0.629350 0.000007 0.000002 2.741282 -0.000000 -0.000003 -0.000002 0.086769 2.267485 8.921715 165.977927 -141.459433 -164.621288 -0.000017 0.000008 4.061083 0.528748 -28.177116 1.877553 -0.000033 0.000002 3.655006 -0.471248 -28.177145 1.877562 0.000008 -0.000004 2.741240 0.000000 -0.000004 -0.000001 -0.173492 4.467255 7.976982 142.398434 -125.897161 -163.244772 -0.000008 -0.000016 3.350418 -1.239061 -39.127241 9.097917 0.000002 -0.000027 2.842773 -3.239055 -39.127217 9.097908 -0.000002 -0.000001 2.639647 0.000000 0.000001 -0.000000 -0.000008 0.000009 0.000006 0.000000 0.000002 0.000002 0.000012 0.000015 0.000005 -0.000002 -0.000000 -0.000001 2.625403 -0.000005 11.175241 -12.923673 88.331312 -0.543728 0.000031 -0.000004 10.813622 19.103839 44.807308 20.517270 -0.000004 0.000038 28.724691 -20.661421 -0.788296 107.775051 0.644308 0.328888 25.716194 -91.207682 55.766230 -20.519683 2.867310 -2.944275 3.959579 -32.131389 14.558097 55.808748 -0.000006 -0.000019 3.350420 6.766205 -5.410493 -12.729318 0.000011 -0.000010 3.756519 4.569052 -3.919092 -8.765423 0.000011 -0.000003 3.100017 0.000000 -0.000002 -0.000001 0.086773 -2.345257 10.030884 -173.467475 192.470400 -165.095549 -0.000005 0.000005 4.061095 -0.559825 0.000395 -0.000074 0.000039 -0.000019 3.248871 -0.057382 -0.000015 -0.001129 0.000001 -0.000006 2.639721 0.000000 0.000000 0.000001 -0.104082 -0.006783 9.502947 -177.356367 185.222532 -171.189607 -0.000014 0.000003 4.568749 -0.567261 -0.000006 -0.056384 0.000005 -0.000048 3.654999 -0.057103 0.000002 -0.048919 -0.000002 -0.000003 2.741257 -0.000000 0.000000 0.000003 -0.086758 2.267433 8.921693 -183.030710 171.431355 -180.169161 0.000002 -0.000021 4.061107 0.983338 6.070542 -0.372346 -0.000010 -0.000029 3.655008 -0.013843 6.070296 -0.372058 0.000009 0.000003 2.741258 0.000000 -0.000001 -0.000001 0.173489 4.467243 7.976990 170.578360 161.448556 163.796160 -0.000004 0.000014 3.350378 1.599494 15.136001 -3.013946 0.000021 0.000000 2.842754 -0.397878 15.136022 -3.013255 -0.000001 0.000001 2.639712 -0.000000 -0.000003 0.000000 0.000025 0.000008 0.000014 -0.000001 0.000001 0.000002 -0.000015 0.000019 0.000032 -0.000001 0.000003 0.000003 -11.289931 0.000000 -0.000004 12.712222 -2.959271 4.069159 0.000015 0.000021 -38.200336 -0.008034 0.005092 32.357403 -0.000009 0.000024 -39.900848 -4.263412 5.050512 4.802312 0.000007 -15.261634 0.000023 0.147898 0.522105 -18.426599 -0.000001 -7.370667 0.000001 0.000000 0.000000 0.000001 -0.000002 0.000061 -0.000002 0.000000 -0.000000 0.000001 0.000001 -0.000002 0.000002 -0.000000 0.000000 0.000000 11.315681 0.000036 0.000015 14.814703 2.943255 11.705106 -0.000018 0.000070 -38.200306 0.677312 -0.267211 21.529516 -0.000001 -0.000000 -39.900860 8.441672 -7.220815 5.145570 0.000011 -15.261656 0.000007 -0.601291 -0.660605 -16.224740 -0.000001 -7.539980 0.000003 0.000000 -0.000000 -0.000000 0.000001 -0.000060 0.000003 -0.000000 -0.000000 0.000001 -0.000000 0.000064 -0.000008 -0.000000 -0.000000 0.000001 
